# xmcd CD database file
#
# Track frame offsets:
#	150
#	20732
#	42255
#	66855
#	89657
#	113840
#	131800
#	148432
#	159930
#	176765
#	196957
#	216517
#	243897
#
# Disc length: 3468 seconds
#
# Revision: 1
# Processed by: cddbd v1.5PL3 Copyright (c) Steve Scherf et al.
# Submitted via: CDex 1.51
#
DISCID=c80d8a0d
DTITLE=Swing Gentlemen, Baltic Jazz Men - Live at Baltic Jazz
DYEAR=1991
DGENRE=Jazz
TTITLE0=Baltic Bounce
TTITLE1=Basiec Jump
TTITLE2=Somebody loves my
TTITLE3=I fall in love too easily
TTITLE4=Bill Bailey
TTITLE5=Baltic Blues
TTITLE6=See, see rider
TTITLE7=Vem kan segla?
TTITLE8=Four
TTITLE9=Blues for Magi
TTITLE10=The man I love
TTITLE11=Jag har bott vid en landväg
TTITLE12=On the sunny side of the street
EXTD=YEAR: 1991
EXTT0=
EXTT1=
EXTT2=
EXTT3=
EXTT4=
EXTT5=
EXTT6=
EXTT7=
EXTT8=
EXTT9=
EXTT10=
EXTT11=
EXTT12=
PLAYORDER=
